<svg viewBox="0 0 181 181" fill="currentColor" xmlns="http://www.w3.org/2000/svg">
<g clip-path="url(#clip0_2_2)">
<path d="M58.6836 117.015H154.488C156.86 117.015 158.941 115.446 159.583 113.168L180.796 38.9282C181.251 37.3277 180.939 35.6085 179.935 34.2787C178.93 32.953 177.367 32.17 175.699 32.17H46.4417L42.6511 15.1129C42.1125 12.6838 39.9583 10.959 37.4727 10.959H5.30273C2.37242 10.959 0 13.3315 0 16.2618C0 19.1935 2.37242 21.5645 5.30273 21.5645H33.2167L52.3659 107.734C46.7317 110.184 42.7754 115.792 42.7754 122.318C42.7754 131.089 49.912 138.226 58.6836 138.226H154.488C157.419 138.226 159.79 135.855 159.79 132.923C159.79 129.993 157.419 127.621 154.488 127.621H58.6836C55.7629 127.621 53.3809 125.244 53.3809 122.318C53.3809 119.392 55.7629 117.015 58.6836 117.015Z" />
<path d="M53.3808 154.134C53.3808 162.907 60.5174 170.042 69.2904 170.042C78.062 170.042 85.1986 162.907 85.1986 154.134C85.1986 145.363 78.062 138.226 69.2904 138.226C60.5174 138.226 53.3808 145.363 53.3808 154.134Z" />
<path d="M127.974 154.134C127.974 162.907 135.111 170.042 143.882 170.042C152.655 170.042 159.79 162.907 159.79 154.134C159.79 145.363 152.655 138.226 143.882 138.226C135.111 138.226 127.974 145.363 127.974 154.134Z" />
</g>
<defs>
<clipPath id="clip0_2_2">
<rect width="181" height="181" />
</clipPath>
</defs>
</svg>
