<svg viewBox="0 0 232 232" fill="currentColor" xmlns="http://www.w3.org/2000/svg">
<path d="M232 116C232 93.0574 225.197 70.63 212.45 51.5539C199.704 32.4778 181.588 17.6097 160.391 8.82997C139.195 0.0502087 115.871 -2.24698 93.3695 2.22891C70.8677 6.70479 50.1985 17.7527 33.9756 33.9756C17.7527 50.1985 6.70479 70.8677 2.22891 93.3695C-2.24698 115.871 0.050209 139.195 8.82997 160.391C17.6097 181.588 32.4778 199.704 51.5539 212.45C70.63 225.197 93.0574 232 116 232L116 210.232C97.3627 210.232 79.1439 204.705 63.6476 194.351C48.1512 183.997 36.0733 169.28 28.9411 152.061C21.8089 134.842 19.9428 115.895 23.5787 97.6163C27.2147 79.3371 36.1894 62.5466 49.368 49.368C62.5466 36.1894 79.3371 27.2147 97.6163 23.5787C115.895 19.9428 134.842 21.8089 152.061 28.9411C169.28 36.0733 183.997 48.1512 194.351 63.6476C204.705 79.1439 210.232 97.3627 210.232 116H232Z"/>
</svg>
