<svg viewBox="0 0 100 100" fill="currentColor" xmlns="http://www.w3.org/2000/svg">
<path d="M39.4922 5.99216C24.1484 6.20309 10.0625 16.289 5.48435 31.7812C1.71872 44.4922 5.3281 57.6093 13.789 66.625L4.74216 94H24.0547L29.0859 76.2734C29.3203 76.3515 29.5468 76.4453 29.7812 76.5234C31.0312 76.8906 32.2812 77.1484 33.5312 77.3672L38.789 94H92.6484L96.8515 78H80.0234L88.9609 44H75.8828C76.8047 27.7031 66.5468 12.3125 50.2187 7.48434C46.6406 6.42184 43.0312 5.94528 39.4922 5.99216ZM39.5625 9.99997C42.7031 9.95309 45.9062 10.375 49.0859 11.3125C63.6484 15.625 72.789 29.4453 71.875 44H67.8672C68.0468 41.5547 67.9375 39.1328 67.4843 36.7812C65.1328 37.0468 61.664 37.2422 57.4062 36.9922L55.4062 44.4531L52.1562 54.875C49.914 59.6093 47.7968 63.1718 46.164 65.2343L44.6875 60.2109C45.289 59.3203 45.8906 58.3828 46.4687 57.3672C45.5156 56.8906 44.5 56.4375 43.4375 55.9922L42.0078 51.1562C44.2734 51.9843 46.4218 52.8672 48.3281 53.8047C49.2656 51.8047 50.125 49.6328 50.8906 47.3125L46.0781 45.8828L27.9687 40.5312C27.664 41.7109 27.414 42.8593 27.1875 44H23.125C23.4062 42.4843 23.7265 40.9531 24.1328 39.3906L12.6875 36C11.8437 39.789 11.8203 43.5937 12.5156 47.2187C14.4218 47.0078 17.1015 46.8515 20.3047 46.9375L18.9687 50.9609C16.875 50.9531 14.9843 51.0156 13.5781 51.1484C14.3672 53.4218 15.4531 55.5703 16.7812 57.5703L15.25 62.2109C8.79685 54.289 6.2031 43.4297 9.31247 32.914C13.3828 19.1718 25.9218 10.1953 39.5625 9.99997ZM38.7734 14.0547C37.1797 14.125 35.6093 14.3125 34.0703 14.6406C34.6875 15.125 35.4375 15.6718 36.2968 16.25C37.1093 15.4375 37.9375 14.6875 38.7734 14.0547ZM45.8984 15.039C44.0703 15.289 42 16.4375 39.8984 18.3593C41.2187 19.039 42.7109 19.6953 44.3437 20.2812L45.8984 15.039ZM29.5703 16.0468C27.1484 17.0234 24.875 18.3359 22.8125 19.9453C24.4765 21.2578 26.8828 22.9843 29.9843 24.7578C31.125 22.7422 32.3359 20.9062 33.6172 19.2812C31.6172 17.9062 30.2578 16.7031 29.5703 16.0468ZM49.7265 16.1718L48.1797 21.414C49.8672 21.8125 51.4687 22.0703 52.9609 22.2187C52.2343 19.4687 51.125 17.3828 49.7265 16.1718ZM56.2422 19.2265C56.5937 20.2109 56.8828 21.289 57.125 22.414C58.164 22.3984 59.0859 22.3515 59.8593 22.2812C58.7578 21.164 57.539 20.1484 56.2422 19.2265ZM37.0625 21.3984C35.8515 22.9062 34.6562 24.6562 33.5312 26.6328C35.8984 27.7968 38.5703 28.914 41.5 29.8828L43.2109 24.125C40.8828 23.3125 38.8359 22.3593 37.0625 21.3984ZM19.7812 22.664C17.2265 25.3281 15.1797 28.5312 13.8125 32.164L25.2734 35.5547C26.1172 33 27.0625 30.5703 28.125 28.3203C24.414 26.2187 21.6172 24.1562 19.7812 22.664ZM47.039 25.2578L45.3359 31.0234C48.3281 31.8047 51.1718 32.3203 53.789 32.6328C53.9218 30.3593 53.875 28.2422 53.6797 26.3125C51.664 26.164 49.4297 25.8437 47.039 25.2578ZM62.875 25.9062C61.9375 26.0781 60.1484 26.3515 57.7265 26.414C57.9062 28.4687 57.9218 30.6718 57.7812 32.9843C61.3515 33.1875 64.3125 33.0547 66.4297 32.8515C65.5625 30.3828 64.375 28.039 62.875 25.9062ZM31.664 30.1953C30.7343 32.1953 29.875 34.3672 29.1015 36.6875L38.6484 39.5156L40.3672 33.7187C37.1562 32.664 34.2422 31.4609 31.664 30.1953ZM44.2031 34.8515L42.4843 40.6484L52.0312 43.4687C52.6484 41.1093 53.1093 38.8125 53.4062 36.6328C50.5703 36.289 47.4687 35.7187 44.2031 34.8515ZM24.164 48H36.9062L47.414 83.5859L49.375 77.2812L58.4843 48H68.1328L56.0937 90H41.7187L30.8125 55.5156L21.0312 90H10.2812L24.164 48ZM72.2969 48H83.7734L74.8359 82H91.664L89.5625 90H60.2578L72.2969 48Z"/>
</svg>
