<svg  viewBox="0 0 27 28" fill="currentColor" xmlns="http://www.w3.org/2000/svg">
<path d="M19.3921 9.69607C19.3921 15.0511 15.0511 19.3921 9.69607 19.3921C4.34108 19.3921 0 15.0511 0 9.69607C0 4.34108 4.34108 0 9.69607 0C15.0511 0 19.3921 4.34108 19.3921 9.69607ZM2.6266 9.69607C2.6266 13.6004 5.79171 16.7655 9.69607 16.7655C13.6004 16.7655 16.7655 13.6004 16.7655 9.69607C16.7655 5.79171 13.6004 2.6266 9.69607 2.6266C5.79171 2.6266 2.6266 5.79171 2.6266 9.69607Z" />
<rect x="16.0032" y="15.5137" width="14.4774" height="2.58562" rx="1.29281" transform="rotate(43.5782 16.0032 15.5137)" />
</svg>
