<svg version="1.1" xmlns="http://www.w3.org/2000/svg" xmlns:xlink="http://www.w3.org/1999/xlink" x="0px" y="0px"
	 viewBox="0 0 512 512" fill="currentColor" xml:space="preserve">
	<g>
		<path d="M511.981,222.492c-0.033-2.573-1.021-5.096-2.894-7.009l-96.095-98.118c-1.919-1.958-4.545-3.063-7.287-3.063H10.199
			C4.567,114.302,0,118.868,0,124.501v228.606c0,5.633,4.567,10.199,10.199,10.199h26.395c4.626,19.686,22.322,34.392,43.4,34.392
			c21.078,0,38.774-14.705,43.401-34.392h208.565c4.626,19.686,22.323,34.392,43.401,34.392s38.774-14.705,43.4-34.392h83.042
			c5.632,0,10.199-4.566,10.199-10.199V222.62C512,222.575,511.988,222.535,511.981,222.492z M354.202,134.701h47.217l76.117,77.719
			H354.202V134.701z M79.994,377.3c-13.34,0-24.193-10.853-24.193-24.193s10.853-24.193,24.193-24.193
			c13.341,0,24.194,10.853,24.194,24.193S93.335,377.3,79.994,377.3z M298.4,342.908H123.395
			c-4.626-19.687-22.323-34.392-43.401-34.392c-21.078,0-38.774,14.705-43.4,34.392H20.398v-68.616H298.4V342.908z M298.4,253.893
			H20.398V134.701H298.4V253.893z M375.36,377.3c-13.341,0-24.193-10.853-24.193-24.193s10.853-24.193,24.193-24.193
			c13.34,0,24.193,10.853,24.193,24.193S388.7,377.3,375.36,377.3z M491.602,253.894H435.04c-5.632,0-10.199,4.566-10.199,10.199
			s4.567,10.199,10.199,10.199h56.562v68.616h-72.841c-4.626-19.687-22.322-34.392-43.4-34.392s-38.774,14.705-43.401,34.392H318.8
			V134.701h15.004v87.919c0,5.633,4.567,10.199,10.199,10.199h147.599V253.894z"/>
	</g>
	<g>
		<path d="M396.296,253.893h-11.985c-5.632,0-10.199,4.566-10.199,10.199c0,5.633,4.567,10.199,10.199,10.199h11.985
			c5.632,0,10.199-4.566,10.199-10.199C406.495,258.46,401.928,253.893,396.296,253.893z"/>
	</g>
</svg>
